<?xml version="1.0" encoding="UTF-8" standalone="no"?>
<!-- Created with Inkscape (http://www.inkscape.org/) -->

<svg
   xmlns:dc="http://purl.org/dc/elements/1.1/"
   xmlns:cc="http://creativecommons.org/ns#"
   xmlns:rdf="http://www.w3.org/1999/02/22-rdf-syntax-ns#"
   xmlns:svg="http://www.w3.org/2000/svg"
   xmlns="http://www.w3.org/2000/svg"
   xmlns:xlink="http://www.w3.org/1999/xlink"
   xmlns:sodipodi="http://sodipodi.sourceforge.net/DTD/sodipodi-0.dtd"
   xmlns:inkscape="http://www.inkscape.org/namespaces/inkscape"
   width="210mm"
   height="297mm"
   viewBox="0 0 744.09448819 1052.3622047"
   id="svg2"
   version="1.1"
   inkscape:version="0.91 r13725"
   sodipodi:docname="logo-big.svg">
  <defs
     id="defs4" />
  <sodipodi:namedview
     id="base"
     pagecolor="#ffffff"
     bordercolor="#666666"
     borderopacity="1.0"
     inkscape:pageopacity="0.0"
     inkscape:pageshadow="2"
     inkscape:zoom="1.0376953"
     inkscape:cx="335.96419"
     inkscape:cy="573.07851"
     inkscape:document-units="px"
     inkscape:current-layer="layer3"
     showgrid="false"
     inkscape:window-width="1600"
     inkscape:window-height="876"
     inkscape:window-x="0"
     inkscape:window-y="24"
     inkscape:window-maximized="1" />
  <metadata
     id="metadata7">
    <rdf:RDF>
      <cc:Work
         rdf:about="">
        <dc:format>image/svg+xml</dc:format>
        <dc:type
           rdf:resource="http://purl.org/dc/dcmitype/StillImage" />
        <dc:title></dc:title>
      </cc:Work>
    </rdf:RDF>
  </metadata>
  <g
     inkscape:label="Original PNG"
     inkscape:groupmode="layer"
     id="layer1"
     style="display:none"
     sodipodi:insensitive="true">
    <image
       sodipodi:absref="/home/olle/workspace/git/codekvast/master/product/graphics/Codekvast-logo.png"
       xlink:href="Codekvast-logo.png"
       width="468.75"
       height="468.75"
       preserveAspectRatio="none"
       style="image-rendering:optimizeQuality"
       id="image3379"
       x="143.38522"
       y="250.38319" />
  </g>
  <g
     inkscape:groupmode="layer"
     id="layer2"
     inkscape:label="Fjädrar"
     style="display:inline" />
  <g
     inkscape:groupmode="layer"
     id="layer4"
     inkscape:label="Tagline"
     style="display:inline" />
  <g
     inkscape:groupmode="layer"
     id="layer3"
     inkscape:label="Codekvast"
     style="display:inline">
    <g
       id="g4349"
       inkscape:export-xdpi="95.300911"
       inkscape:export-ydpi="95.300911">
      <g
         transform="translate(115.84147,10.221306)"
         id="g4230"
         style="display:inline">
        <path
           style="fill:#00abcc;fill-opacity:1;fill-rule:evenodd;stroke:none;stroke-width:1px;stroke-linecap:butt;stroke-linejoin:miter;stroke-opacity:1"
           d="m 146.07828,462.79035 c -16.11077,-39.97392 -34.3685,-80.57039 -44.08809,-121.66384 -22.792923,34.26154 12.85271,89.13681 44.08809,121.66384 z"
           id="path3383"
           inkscape:connector-curvature="0"
           sodipodi:nodetypes="ccc" />
        <path
           sodipodi:nodetypes="ccc"
           inkscape:connector-curvature="0"
           id="path3385"
           d="M 137.01797,475.26195 C 116.62453,448.26481 96.693637,421.58872 77.254367,396.76024 66.918147,428.04241 101.5704,437.57805 137.01797,475.26195 Z"
           style="fill:#00abcc;fill-opacity:1;fill-rule:evenodd;stroke:none;stroke-width:0.93522596px;stroke-linecap:butt;stroke-linejoin:miter;stroke-opacity:1" />
        <path
           style="fill:#00abcc;fill-opacity:1;fill-rule:evenodd;stroke:none;stroke-width:0.69246429px;stroke-linecap:butt;stroke-linejoin:miter;stroke-opacity:1"
           d="m 133.03798,482.27735 c -22.38623,-13.97406 -44.792923,-28.76928 -65.987563,-41.54728 -0.22142,29.77532 23.32611,25.21431 65.987563,41.54728 z"
           id="path3387"
           inkscape:connector-curvature="0"
           sodipodi:nodetypes="ccc" />
        <path
           sodipodi:nodetypes="ccc"
           inkscape:connector-curvature="0"
           id="path3389"
           d="m 134.62183,494.449 c -22.86917,-4.56302 -43.891033,-10.2657 -64.402433,-14.87876 4.40198,21.44333 28.84296,15.47241 64.402433,14.87876 z"
           style="fill:#00abcc;fill-opacity:1;fill-rule:evenodd;stroke:none;stroke-width:0.40930313px;stroke-linecap:butt;stroke-linejoin:miter;stroke-opacity:1" />
        <path
           style="fill:#00abcc;fill-opacity:1;fill-rule:evenodd;stroke:none;stroke-width:0.30917421px;stroke-linecap:butt;stroke-linejoin:miter;stroke-opacity:1"
           d="m 135.90664,506.37425 c -15.8925,0.52509 -30.9897,0.66205 -45.322493,0.70827 9.491733,16.45982 29.834453,8.20232 45.322493,-0.70827 z"
           id="path3391"
           inkscape:connector-curvature="0"
           sodipodi:nodetypes="ccc" />
        <path
           sodipodi:nodetypes="ccc"
           inkscape:connector-curvature="0"
           id="path3393"
           d="m 149.11909,516.44088 c -11.85879,3.72699 -23.37654,6.25828 -34.15617,9.28124 10.52947,14.62192 24.28658,1.66966 34.15617,-9.28124 z"
           style="fill:#00abcc;fill-opacity:1;fill-rule:evenodd;stroke:none;stroke-width:0.24677509px;stroke-linecap:butt;stroke-linejoin:miter;stroke-opacity:1" />
        <path
           style="fill:#00abcc;fill-opacity:1;fill-rule:evenodd;stroke:none;stroke-width:0.17091782px;stroke-linecap:butt;stroke-linejoin:miter;stroke-opacity:1"
           d="m 159.4074,526.1828 c -7.61366,4.35391 -15.20155,7.87978 -22.18711,11.6019 10.05476,9.05723 17.28487,-2.41564 22.18711,-11.6019 z"
           id="path3395"
           inkscape:connector-curvature="0"
           sodipodi:nodetypes="ccc" />
        <path
           sodipodi:nodetypes="ccc"
           inkscape:connector-curvature="0"
           id="path3397"
           d="m 172.55895,530.39295 c -4.30426,4.77226 -8.31976,8.86022 -12.33855,13.05521 13.00801,2.5245 11.68878,-5.74443 12.33855,-13.05521 z"
           style="fill:#faa618;fill-opacity:1;fill-rule:evenodd;stroke:none;stroke-width:0.12568444px;stroke-linecap:butt;stroke-linejoin:miter;stroke-opacity:1" />
        <path
           style="fill:#faa618;fill-opacity:1;fill-rule:evenodd;stroke:none;stroke-width:0.10206781px;stroke-linecap:butt;stroke-linejoin:miter;stroke-opacity:1"
           d="m 185.5275,533.32983 c -2.82718,4.19722 -5.53449,8.59105 -8.21001,12.66006 9.3951,-1.27833 8.15816,-6.79604 8.21001,-12.66006 z"
           id="path3399"
           inkscape:connector-curvature="0"
           sodipodi:nodetypes="ccc" />
        <path
           style="opacity:1;fill:#a6cd38;fill-opacity:1;stroke:none;stroke-width:5.19999981;stroke-linecap:round;stroke-linejoin:round;stroke-miterlimit:4;stroke-dasharray:none;stroke-opacity:1"
           d="m 93.93002,495.31313 c -5.253209,-0.30657 -7.938636,-0.75384 -11.479306,-1.91195 -4.987709,-1.63143 -8.240645,-4.40054 -10.362323,-8.82108 -1.447407,-3.01569 -1.803072,-4.59959 -1.032841,-4.59959 0.302146,0 6.339105,1.39039 13.415465,3.08976 24.010655,5.7661 33.974325,8.09674 40.933465,9.57491 l 6.94332,1.47481 -2.68444,0.2225 c -2.34091,0.19403 -15.21792,0.71283 -27.38594,1.10336 -2.15499,0.0692 -5.911322,0.009 -8.3474,-0.13272 z"
           id="path4222"
           inkscape:connector-curvature="0" />
        <path
           style="opacity:1;fill:#a6cd38;fill-opacity:1;stroke:none;stroke-width:5.19999981;stroke-linecap:round;stroke-linejoin:round;stroke-miterlimit:4;stroke-dasharray:none;stroke-opacity:1"
           d="m 102.72619,515.94808 c -4.30912,-0.9851 -7.884626,-3.2185 -10.323077,-6.44821 -0.753022,-0.99737 -1.36913,-1.91445 -1.36913,-2.03797 0,-0.12351 3.104722,-0.22696 6.899382,-0.22989 3.794655,-0.003 13.632515,-0.1564 21.861905,-0.34104 8.22939,-0.18465 15.02445,-0.2738 15.10013,-0.19812 0.25201,0.25201 -10.59624,5.5123 -13.70889,6.6474 -7.29607,2.66069 -14.05343,3.61528 -18.46032,2.60783 z"
           id="path4224"
           inkscape:connector-curvature="0" />
        <path
           style="opacity:1;fill:#a6cd38;fill-opacity:1;stroke:none;stroke-width:5.19999981;stroke-linecap:round;stroke-linejoin:round;stroke-miterlimit:4;stroke-dasharray:none;stroke-opacity:1"
           d="m 123.20999,531.78972 c -1.92326,-0.46033 -4.62481,-2.19102 -6.32648,-4.05292 -0.92791,-1.01528 -1.64248,-1.88395 -1.58793,-1.93037 0.0545,-0.0464 3.16558,-0.88369 6.91339,-1.8606 10.44233,-2.72191 21.56248,-5.71979 24.00245,-6.47082 1.20835,-0.37193 2.24614,-0.6271 2.30621,-0.56704 0.0601,0.0601 -2.01415,2.17465 -4.60936,4.69908 -8.69919,8.46195 -14.97932,11.55151 -20.69828,10.18267 z"
           id="path4226"
           inkscape:connector-curvature="0" />
        <path
           style="opacity:1;fill:#faa618;fill-opacity:1;stroke:none;stroke-width:5.19999981;stroke-linecap:round;stroke-linejoin:round;stroke-miterlimit:4;stroke-dasharray:none;stroke-opacity:1"
           d="m 141.96987,540.51481 c -1.46459,-0.48057 -4.25859,-2.1989 -4.25859,-2.61906 0,-0.14061 3.48802,-2.03383 7.75116,-4.20717 4.26314,-2.17334 9.01604,-4.63611 10.56202,-5.47283 1.54597,-0.83673 2.81086,-1.46763 2.81086,-1.402 0,0.27623 -2.39453,4.32466 -3.65611,6.18139 -4.31645,6.35273 -8.86846,8.94405 -13.20934,7.51967 z"
           id="path4228"
           inkscape:connector-curvature="0" />
      </g>
      <text
         sodipodi:linespacing="125%"
         id="text4249"
         y="533.43835"
         x="277.47165"
         style="display:inline;font-style:normal;font-weight:normal;font-size:17.45583916px;line-height:125%;font-family:Sans;letter-spacing:0px;word-spacing:0px;fill:#bcbcbc;fill-opacity:1;stroke:none;stroke-width:1px;stroke-linecap:butt;stroke-linejoin:miter;stroke-opacity:1"
         xml:space="preserve"><tspan
           y="533.43835"
           x="277.47165"
           id="tspan4251"
           sodipodi:role="line">The Truly Dead Code Detector</tspan></text>
      <text
         sodipodi:linespacing="125%"
         id="text4245"
         y="585.74207"
         x="358.50415"
         style="font-style:normal;font-variant:normal;font-weight:bold;font-stretch:normal;font-size:56.41448212px;line-height:125%;font-family:Noteworthy;-inkscape-font-specification:'Noteworthy, Bold';text-align:start;letter-spacing:0px;word-spacing:0px;writing-mode:lr-tb;text-anchor:start;display:inline;fill:#434343;fill-opacity:1;stroke:none;stroke-width:1px;stroke-linecap:butt;stroke-linejoin:miter;stroke-opacity:1"
         xml:space="preserve"
         transform="matrix(1.1463119,0,-0.25806299,0.87236296,0,0)"><tspan
           style="font-style:normal;font-variant:normal;font-weight:bold;font-stretch:normal;font-size:56.41448212px;line-height:125%;font-family:Noteworthy;-inkscape-font-specification:'Noteworthy, Bold';text-align:start;writing-mode:lr-tb;text-anchor:start;fill:#434343;fill-opacity:1"
           y="585.74207"
           x="358.50415"
           id="tspan4247"
           sodipodi:role="line">Codekvast</tspan></text>
    </g>
  </g>
</svg>
