<?xml version="1.0" encoding="UTF-8" standalone="no"?>
<!-- Created with Inkscape (http://www.inkscape.org/) -->

<svg
   xmlns:dc="http://purl.org/dc/elements/1.1/"
   xmlns:cc="http://creativecommons.org/ns#"
   xmlns:rdf="http://www.w3.org/1999/02/22-rdf-syntax-ns#"
   xmlns:svg="http://www.w3.org/2000/svg"
   xmlns="http://www.w3.org/2000/svg"
   xmlns:xlink="http://www.w3.org/1999/xlink"
   xmlns:sodipodi="http://sodipodi.sourceforge.net/DTD/sodipodi-0.dtd"
   xmlns:inkscape="http://www.inkscape.org/namespaces/inkscape"
   width="210mm"
   height="297mm"
   viewBox="0 0 744.09448819 1052.3622047"
   id="svg2"
   version="1.1"
   inkscape:version="0.91 r13725"
   sodipodi:docname="logo-original-all-layers.svg">
  <defs
     id="defs4">
    <linearGradient
       inkscape:collect="always"
       id="linearGradient4293">
      <stop
         id="stop4297"
         offset="0"
         style="stop-color:#bbbbbb;stop-opacity:0;" />
      <stop
         id="stop4295"
         offset="1"
         style="stop-color:#bbbbbb;stop-opacity:1;" />
    </linearGradient>
    <linearGradient
       inkscape:collect="always"
       xlink:href="#linearGradient4293"
       id="linearGradient4299"
       x1="269.87936"
       y1="528.18744"
       x2="337.11313"
       y2="526.07614"
       gradientUnits="userSpaceOnUse"
       gradientTransform="matrix(0.98740777,-0.10387671,0.12643256,1.2018141,-66.621847,-76.558886)" />
  </defs>
  <sodipodi:namedview
     id="base"
     pagecolor="#ffffff"
     bordercolor="#666666"
     borderopacity="1.0"
     inkscape:pageopacity="0.0"
     inkscape:pageshadow="2"
     inkscape:zoom="3.0766044"
     inkscape:cx="268.03424"
     inkscape:cy="573.907"
     inkscape:document-units="px"
     inkscape:current-layer="layer2"
     showgrid="false"
     inkscape:window-width="1600"
     inkscape:window-height="876"
     inkscape:window-x="0"
     inkscape:window-y="24"
     inkscape:window-maximized="1" />
  <metadata
     id="metadata7">
    <rdf:RDF>
      <cc:Work
         rdf:about="">
        <dc:format>image/svg+xml</dc:format>
        <dc:type
           rdf:resource="http://purl.org/dc/dcmitype/StillImage" />
        <dc:title />
      </cc:Work>
    </rdf:RDF>
  </metadata>
  <g
     inkscape:groupmode="layer"
     id="layer2"
     inkscape:label="Feathers"
     style="display:inline"
     sodipodi:insensitive="true">
    <g
       transform="translate(115.84147,10.221306)"
       id="g4230"
       style="display:inline">
      <path
         style="fill:#00abcc;fill-opacity:1;fill-rule:evenodd;stroke:none;stroke-width:1px;stroke-linecap:butt;stroke-linejoin:miter;stroke-opacity:1"
         d="m 146.07828,462.79035 c -16.11077,-39.97392 -34.3685,-80.57039 -44.08809,-121.66384 -22.792923,34.26154 12.85271,89.13681 44.08809,121.66384 z"
         id="path3383"
         inkscape:connector-curvature="0"
         sodipodi:nodetypes="ccc" />
      <path
         sodipodi:nodetypes="ccc"
         inkscape:connector-curvature="0"
         id="path3385"
         d="M 137.01797,475.26195 C 116.62453,448.26481 96.693637,421.58872 77.254367,396.76024 66.918147,428.04241 101.5704,437.57805 137.01797,475.26195 Z"
         style="fill:#00abcc;fill-opacity:1;fill-rule:evenodd;stroke:none;stroke-width:0.93522596px;stroke-linecap:butt;stroke-linejoin:miter;stroke-opacity:1" />
      <path
         style="fill:#00abcc;fill-opacity:1;fill-rule:evenodd;stroke:none;stroke-width:0.69246429px;stroke-linecap:butt;stroke-linejoin:miter;stroke-opacity:1"
         d="m 133.03798,482.27735 c -22.38623,-13.97406 -44.792923,-28.76928 -65.987563,-41.54728 -0.22142,29.77532 23.32611,25.21431 65.987563,41.54728 z"
         id="path3387"
         inkscape:connector-curvature="0"
         sodipodi:nodetypes="ccc" />
      <path
         sodipodi:nodetypes="ccc"
         inkscape:connector-curvature="0"
         id="path3397"
         d="m 172.55895,530.39295 c -4.30426,4.77226 -8.31976,8.86022 -12.33855,13.05521 13.00801,2.5245 11.68878,-5.74443 12.33855,-13.05521 z"
         style="fill:#faa618;fill-opacity:1;fill-rule:evenodd;stroke:none;stroke-width:0.12568444px;stroke-linecap:butt;stroke-linejoin:miter;stroke-opacity:1" />
      <path
         style="fill:#faa618;fill-opacity:1;fill-rule:evenodd;stroke:none;stroke-width:0.10206781px;stroke-linecap:butt;stroke-linejoin:miter;stroke-opacity:1"
         d="m 185.5275,533.32983 c -2.82718,4.19722 -5.53449,8.59105 -8.21001,12.66006 9.3951,-1.27833 8.15816,-6.79604 8.21001,-12.66006 z"
         id="path3399"
         inkscape:connector-curvature="0"
         sodipodi:nodetypes="ccc" />
      <path
         style="opacity:1;fill:#a6cd38;fill-opacity:1;stroke:none;stroke-width:5.19999981;stroke-linecap:round;stroke-linejoin:round;stroke-miterlimit:4;stroke-dasharray:none;stroke-opacity:1"
         d="m 93.93002,495.31313 c -5.253209,-0.30657 -7.938636,-0.75384 -11.479306,-1.91195 -4.987709,-1.63143 -8.240645,-4.40054 -10.362323,-8.82108 -1.447407,-3.01569 -1.803072,-4.59959 -1.032841,-4.59959 0.302146,0 6.339105,1.39039 13.415465,3.08976 24.010655,5.7661 33.974325,8.09674 40.933465,9.57491 l 6.94332,1.47481 -2.68444,0.2225 c -2.34091,0.19403 -15.21792,0.71283 -27.38594,1.10336 -2.15499,0.0692 -5.911322,0.009 -8.3474,-0.13272 z"
         id="path4222"
         inkscape:connector-curvature="0" />
      <path
         style="opacity:1;fill:#a6cd38;fill-opacity:1;stroke:none;stroke-width:5.19999981;stroke-linecap:round;stroke-linejoin:round;stroke-miterlimit:4;stroke-dasharray:none;stroke-opacity:1"
         d="m 102.72619,515.94808 c -4.30912,-0.9851 -7.884626,-3.2185 -10.323077,-6.44821 -0.753022,-0.99737 -1.36913,-1.91445 -1.36913,-2.03797 0,-0.12351 3.104722,-0.22696 6.899382,-0.22989 3.794655,-0.003 13.632515,-0.1564 21.861905,-0.34104 8.22939,-0.18465 15.02445,-0.2738 15.10013,-0.19812 0.25201,0.25201 -10.59624,5.5123 -13.70889,6.6474 -7.29607,2.66069 -14.05343,3.61528 -18.46032,2.60783 z"
         id="path4224"
         inkscape:connector-curvature="0" />
      <path
         style="opacity:1;fill:#a6cd38;fill-opacity:1;stroke:none;stroke-width:5.19999981;stroke-linecap:round;stroke-linejoin:round;stroke-miterlimit:4;stroke-dasharray:none;stroke-opacity:1"
         d="m 123.20999,531.78972 c -1.92326,-0.46033 -4.62481,-2.19102 -6.32648,-4.05292 -0.92791,-1.01528 -1.64248,-1.88395 -1.58793,-1.93037 0.0545,-0.0464 3.16558,-0.88369 6.91339,-1.8606 10.44233,-2.72191 21.56248,-5.71979 24.00245,-6.47082 1.20835,-0.37193 2.24614,-0.6271 2.30621,-0.56704 0.0601,0.0601 -2.01415,2.17465 -4.60936,4.69908 -8.69919,8.46195 -14.97932,11.55151 -20.69828,10.18267 z"
         id="path4226"
         inkscape:connector-curvature="0" />
      <path
         style="opacity:1;fill:#faa618;fill-opacity:1;stroke:none;stroke-width:5.19999981;stroke-linecap:round;stroke-linejoin:round;stroke-miterlimit:4;stroke-dasharray:none;stroke-opacity:1"
         d="m 141.96987,540.51481 c -1.46459,-0.48057 -4.25859,-2.1989 -4.25859,-2.61906 0,-0.14061 3.48802,-2.03383 7.75116,-4.20717 4.26314,-2.17334 9.01604,-4.63611 10.56202,-5.47283 1.54597,-0.83673 2.81086,-1.46763 2.81086,-1.402 0,0.27623 -2.39453,4.32466 -3.65611,6.18139 -4.31645,6.35273 -8.86846,8.94405 -13.20934,7.51967 z"
         id="path4228"
         inkscape:connector-curvature="0" />
    </g>
  </g>
  <g
     inkscape:groupmode="layer"
     id="layer4"
     inkscape:label="Tagline"
     style="display:none"
     sodipodi:insensitive="true">
    <text
       sodipodi:linespacing="125%"
       id="text4249"
       y="533.43835"
       x="277.47165"
       style="font-style:normal;font-weight:normal;font-size:17.45583916px;line-height:125%;font-family:Sans;letter-spacing:0px;word-spacing:0px;display:inline;fill:#bcbcbc;fill-opacity:1;stroke:none;stroke-width:1px;stroke-linecap:butt;stroke-linejoin:miter;stroke-opacity:1"
       xml:space="preserve"><tspan
         y="533.43835"
         x="277.47165"
         id="tspan4251"
         sodipodi:role="line">The Truly Dead Code Detector</tspan></text>
  </g>
  <g
     inkscape:groupmode="layer"
     id="layer3"
     inkscape:label="Codekvast"
     style="display:none"
     sodipodi:insensitive="true">
    <g
       id="g4349"
       inkscape:export-xdpi="95.300911"
       inkscape:export-ydpi="95.300911">
      <text
         sodipodi:linespacing="125%"
         id="text4245"
         y="585.74207"
         x="358.50415"
         style="font-style:normal;font-variant:normal;font-weight:bold;font-stretch:normal;font-size:56.41448212px;line-height:125%;font-family:Noteworthy;-inkscape-font-specification:'Noteworthy, Bold';text-align:start;letter-spacing:0px;word-spacing:0px;writing-mode:lr-tb;text-anchor:start;display:inline;fill:#434343;fill-opacity:1;stroke:none;stroke-width:1px;stroke-linecap:butt;stroke-linejoin:miter;stroke-opacity:1"
         xml:space="preserve"
         transform="matrix(1.1463119,0,-0.25806299,0.87236296,0,0)"><tspan
           style="font-style:normal;font-variant:normal;font-weight:bold;font-stretch:normal;font-size:56.41448212px;line-height:125%;font-family:Noteworthy;-inkscape-font-specification:'Noteworthy, Bold';text-align:start;writing-mode:lr-tb;text-anchor:start;fill:#434343;fill-opacity:1"
           y="585.74207"
           x="358.50415"
           id="tspan4247"
           sodipodi:role="line">Codekvast</tspan></text>
    </g>
  </g>
  <g
     style="display:inline"
     inkscape:label="CK"
     id="g4215"
     inkscape:groupmode="layer">
    <g
       inkscape:export-ydpi="95.300911"
       inkscape:export-xdpi="95.300911"
       id="g4217">
      <g
         id="g4303">
        <path
           sodipodi:nodetypes="scccaszaazcccssccsccccccccccccs"
           inkscape:connector-curvature="0"
           id="path4225"
           d="m 315.70547,458.57895 c -1.34531,0.0441 -2.77619,0.40791 -3.90364,1.08726 -3.27655,1.75624 -2.68425,4.51219 -2.78895,6.71647 -1.80345,7.15976 -4.13022,14.32935 -6.35326,21.49316 -4.83137,11.96828 -7.46425,17.27732 -15.42114,20.12815 -5.29597,1.89747 -13.88037,2.58329 -16.43642,-3.83059 -2.78092,-6.97815 3.96967,-19.66261 8.75261,-24.33585 4.78294,-4.67324 9.17722,-6.43056 13.52677,-4.51345 2.12722,0.9376 2.89048,4.04832 2.83391,6.37232 -0.0903,3.71017 -2.563,7.16479 -5.01384,9.94099 -2.45084,2.7762 -0.53576,5.6383 3.43171,4.17368 3.04855,-1.67578 4.60597,-4.32945 6.07008,-6.69236 3.74503,-5.76042 7.57446,-22.73866 3.30114,-27.27394 -1.02893,-4.67834 -11.72147,1.06197 -18.53852,4.72507 -6.81705,3.66311 -15.8483,10.68598 -20.22453,18.34058 -4.37623,7.6546 -8.31848,18.00709 -5.19932,25.06795 2.33485,6.37161 12.02766,9.32976 21.58125,7.86731 5.60504,-0.80704 11.46924,-4.17865 14.39197,-6.96016 9.55179,-9.09027 8.3603,-11.22465 13.17623,-15.18404 4.88072,4.25364 8.10889,9.48654 13.34024,13.52501 1.95807,1.96895 6.5562,0.93267 9.38716,-0.74311 -0.003,-0.78488 1.06602,-1.76127 0.30115,-2.39372 -6.31302,-2.56572 -9.71421,-7.37072 -13.43463,-11.69246 -1.34998,-1.21456 -3.55439,-2.72165 -1.85855,-4.7217 3.36629,-2.05688 6.90513,-3.94079 10.53106,-5.70155 2.83829,-1.81382 6.40166,-2.55632 9.30625,-4.26356 3.47539,-2.24907 0.85799,-6.4782 -3.34855,-5.23245 -7.67902,3.67738 -14.74819,8.0721 -22.11162,12.11772 2.01091,-6.15867 3.90375,-12.31812 5.90602,-18.47688 0.26824,-2.41879 2.47123,-4.69181 3.03616,-7.0716 0.0104,-1.72695 -1.99856,-2.54178 -4.24074,-2.46825 z"
           style="font-style:normal;font-variant:normal;font-weight:bold;font-stretch:normal;font-size:56.41448212px;line-height:125%;font-family:Noteworthy;-inkscape-font-specification:'Noteworthy, Bold';text-align:start;letter-spacing:0px;word-spacing:0px;writing-mode:lr-tb;text-anchor:start;fill:#434343;fill-opacity:1;stroke:none;stroke-width:1px;stroke-linecap:butt;stroke-linejoin:miter;stroke-opacity:1" />
        <path
           inkscape:connector-curvature="0"
           id="path4291"
           d="m 264.85967,524.70004 c 57.92214,-7.76914 65.79995,-0.49896 65.79995,-0.49896"
           style="fill:none;fill-rule:evenodd;stroke:url(#linearGradient4299);stroke-width:5.36726522;stroke-linecap:round;stroke-linejoin:miter;stroke-miterlimit:4;stroke-dasharray:none;stroke-opacity:1" />
      </g>
    </g>
  </g>
</svg>
